<svg xmlns="http://www.w3.org/2000/svg" width="177" height="99" fill="none" xmlns:v="https://vecta.io/nano"><g clip-path="url(#A)"><path fill="#000" d="M0 0h177v99H0z"/><g fill="#fff"><path d="M62.711 38.729c0 1.497-.599 2.755-1.797 3.773-1.138.958-2.546 1.438-4.223 1.438H18.688c-.779 0-1.408.15-1.887.449s-.839.629-1.078.988c-.24.3-.359.569-.359.809 0 .3.12.629.359.988.239.3.599.599 1.078.898.479.24 1.108.389 1.887.449h29.379c3.773.06 6.888.809 9.344 2.246 2.456 1.378 4.193 3.025 5.211 4.941 1.078 1.857 1.617 3.743 1.617 5.66 0 1.857-.539 3.743-1.617 5.66-1.078 1.857-2.845 3.504-5.301 4.942-2.396 1.378-5.481 2.066-9.254 2.066l-1.437.09H11.77c-1.677 0-3.115-.479-4.312-1.437-1.138-1.018-1.707-2.246-1.707-3.684 0-1.497.599-2.755 1.797-3.773 1.138-.958 2.546-1.438 4.223-1.438h37.016c.898.06 1.617-.06 2.156-.359.599-.299 1.048-.629 1.348-.988s.449-.719.449-1.078c0-.18-.15-.479-.449-.898-.299-.479-.749-.839-1.348-1.078-.539-.299-1.258-.479-2.156-.539H19.316c-3.474-.06-6.349-.779-8.625-2.156-2.276-1.437-3.893-3.085-4.852-4.941s-1.437-3.714-1.437-5.57.479-3.684 1.438-5.48c1.018-1.857 2.635-3.444 4.852-4.762 2.276-1.378 5.151-2.126 8.625-2.246l1.348-.09h36.027c1.677 0 3.085.509 4.223 1.527 1.198.958 1.797 2.156 1.797 3.594z"/><path d="M68.859 32.619c1.617.06 2.995.659 4.133 1.797 1.138 1.078 1.737 2.426 1.797 4.043v31.086c-.359 3.594-2.336 5.54-5.93 5.84-1.677 0-3.145-.539-4.402-1.617-1.198-1.138-1.797-2.546-1.797-4.223V38.459c.06-1.677.689-3.055 1.887-4.133 1.198-1.138 2.635-1.707 4.313-1.707zm-7.547-11.68c0-1.677.719-3.115 2.156-4.312s3.174-1.797 5.211-1.797 3.773.599 5.211 1.797 2.156 2.635 2.156 4.313c0 1.737-.719 3.204-2.156 4.402s-3.175 1.797-5.211 1.797-3.773-.599-5.211-1.797-2.156-2.665-2.156-4.402z"/><path d="M91.32 89.888c-3.115 0-6.199-.359-9.254-1.078-2.995-.719-5.87-1.767-8.625-3.145-2.755-1.437-5.181-3.324-7.277-5.66s-3.234-5.121-3.414-8.355v-3.773-15.363c0-1.677.599-3.055 1.797-4.133 1.258-1.138 2.725-1.707 4.402-1.707 3.594.3 5.54 2.246 5.84 5.84v3.953 12.398c.12 1.857.809 3.414 2.066 4.672 1.318 1.198 2.755 2.156 4.313 2.875 1.617.719 3.264 1.258 4.941 1.617 1.737.359 3.474.539 5.211.539a24.37 24.37 0 0 0 5.121-.539 22.75 22.75 0 0 0 4.942-1.617c1.617-.719 3.055-1.677 4.312-2.875 1.318-1.258 2.037-2.815 2.157-4.672V56.466v-3.953c0-1.677.599-3.055 1.796-4.133 1.258-1.138 2.726-1.707 4.403-1.707 3.594.3 5.57 2.246 5.929 5.84v15.363 3.773c-.179 3.234-1.347 6.019-3.503 8.355-2.097 2.336-4.523 4.223-7.278 5.66a39.79 39.79 0 0 1-8.715 3.145c-2.994.719-6.049 1.078-9.164 1.078z"/><path d="M126.707 25.684a17.74 17.74 0 0 1 6.109 1.078c2.037.719 3.983 1.767 5.84 3.144l.989.899.988-.899c1.857-1.378 3.773-2.426 5.75-3.144 2.036-.719 4.073-1.078 6.109-1.078 2.097 0 4.133.359 6.11 1.078 2.036.719 3.953 1.797 5.75 3.234 1.856 1.378 3.474 3.234 4.851 5.57 1.438 2.336 2.156 5.121 2.156 8.356v19.137c-.359 3.594-2.336 5.54-5.929 5.84-1.677 0-3.145-.539-4.403-1.617-1.198-1.138-1.797-2.546-1.797-4.223V44.641c0-1.437-.269-2.635-.808-3.594-.539-1.018-1.138-1.797-1.797-2.336-.659-.599-1.348-1.018-2.066-1.258-.719-.3-1.438-.449-2.157-.449a5.57 5.57 0 0 0-2.156.449c-.659.24-1.318.659-1.976 1.258-.659.539-1.258 1.318-1.797 2.336-.539.958-.839 2.156-.899 3.594v18.418c-.359 3.594-2.336 5.54-5.929 5.84-1.678 0-3.145-.539-4.403-1.617-1.198-1.138-1.797-2.546-1.797-4.223V44.641c0-1.437-.269-2.635-.808-3.594-.539-1.018-1.138-1.797-1.797-2.336-.659-.599-1.348-1.018-2.067-1.258-.718-.3-1.437-.449-2.156-.449s-1.437.15-2.156.449c-.659.24-1.318.659-1.977 1.258-.658.539-1.257 1.318-1.796 2.336-.54.958-.839 2.156-.899 3.594v18.418c-.299 3.594-2.246 5.54-5.84 5.84-1.677 0-3.144-.539-4.402-1.617-1.198-1.138-1.797-2.546-1.797-4.223V43.922c.12-3.234.868-6.02 2.246-8.355s2.995-4.193 4.852-5.57c1.856-1.437 3.773-2.516 5.75-3.234 2.036-.719 4.073-1.078 6.109-1.078z"/></g></g><defs><clipPath id="A"><path fill="#fff" d="M0 0h177v99H0z"/></clipPath></defs></svg>