<?xml version="1.0"?>
<svg xmlns="http://www.w3.org/2000/svg" xmlns:xlink="http://www.w3.org/1999/xlink" xmlns:svgjs="http://svgjs.com/svgjs" version="1.1" width="512" height="512" x="0" y="0" viewBox="0 0 512 512" style="enable-background:new 0 0 512 512" xml:space="preserve" class=""><g><g xmlns="http://www.w3.org/2000/svg"><g><path d="m477.393 0h-72.233c-5.522 0-10 4.477-10 10s4.478 10 10 10h72.232c8.055 0 14.608 6.553 14.608 14.607v78.926c0 5.523 4.478 10 10 10s10-4.477 10-10v-78.926c0-19.083-15.524-34.607-34.607-34.607z" fill="#ffffff" data-original="#000000" style=""/><path d="m10 123.533c5.522 0 10-4.477 10-10v-78.926c0-8.054 6.553-14.607 14.607-14.607h72.232c5.522 0 10-4.477 10-10s-4.478-10-10-10h-72.232c-19.083 0-34.607 15.524-34.607 34.607v78.926c0 5.523 4.478 10 10 10z" fill="#ffffff" data-original="#000000" style=""/><path d="m502 388.467c-5.522 0-10 4.477-10 10v78.926c0 8.054-6.553 14.607-14.607 14.607h-72.233c-5.522 0-10 4.477-10 10s4.478 10 10 10h72.232c19.084 0 34.608-15.524 34.608-34.607v-78.926c0-5.523-4.478-10-10-10z" fill="#ffffff" data-original="#000000" style=""/><path d="m106.84 492h-72.233c-8.054 0-14.607-6.553-14.607-14.607v-78.926c0-5.523-4.478-10-10-10s-10 4.477-10 10v78.926c0 19.083 15.524 34.607 34.607 34.607h72.232c5.522 0 10-4.477 10-10s-4.477-10-9.999-10z" fill="#ffffff" data-original="#000000" style=""/><path d="m393.241 320.861c24.264 0 44.003-19.739 44.003-44.002s-19.739-44.002-44.003-44.002c-24.263 0-44.002 19.739-44.002 44.002s19.74 44.002 44.002 44.002zm0-68.005c13.235 0 24.003 10.768 24.003 24.002s-10.768 24.002-24.003 24.002c-13.234 0-24.002-10.768-24.002-24.002s10.768-24.002 24.002-24.002z" fill="#ffffff" data-original="#000000" style=""/><path d="m241.146 164.581c17.549 0 31.825-14.277 31.825-31.825s-14.276-31.825-31.825-31.825-31.825 14.277-31.825 31.825 14.277 31.825 31.825 31.825zm0-43.65c6.521 0 11.825 5.305 11.825 11.825s-5.305 11.825-11.825 11.825-11.825-5.305-11.825-11.825 5.305-11.825 11.825-11.825z" fill="#ffffff" data-original="#000000" style=""/><path d="m259.112 317.598c-37.278 0-67.606 30.328-67.606 67.606 0 17.751 6.839 34.527 19.257 47.236 3.858 3.95 10.191 4.025 14.141.165s4.024-10.191.164-14.141c-8.745-8.951-13.562-20.763-13.562-33.259 0-26.25 21.356-47.606 47.606-47.606s47.606 21.356 47.606 47.606c0 13.053-5.191 25.235-14.619 34.303-3.98 3.829-4.104 10.159-.274 14.14 1.963 2.041 4.584 3.067 7.208 3.067 2.494 0 4.992-.928 6.932-2.793 13.384-12.874 20.754-30.175 20.754-48.717 0-37.279-30.328-67.607-67.607-67.607z" fill="#ffffff" data-original="#000000" style=""/><path d="m220.045 210.952v63.81c0 5.523 4.478 10 10 10h63.81c5.522 0 10-4.477 10-10v-63.81c0-5.523-4.478-10-10-10h-63.81c-5.523 0-10 4.477-10 10zm20 10h43.81v43.81h-43.81z" fill="#ffffff" data-original="#000000" style=""/><path d="m66.925 85.9v89.487c0 5.523 4.478 10 10 10h89.487c5.522 0 10-4.477 10-10v-89.487c0-5.523-4.478-10-10-10h-89.487c-5.523 0-10 4.477-10 10zm20 10h69.487v69.487h-69.487z" fill="#ffffff" data-original="#000000" style=""/><path d="m146.549 355.335h-49.761c-5.522 0-10 4.477-10 10v49.761c0 5.523 4.478 10 10 10h49.761c5.522 0 10-4.477 10-10v-49.761c0-5.523-4.478-10-10-10zm-10 49.761h-29.761v-29.761h29.761z" fill="#ffffff" data-original="#000000" style=""/><path d="m369.15 203.394c3.85 3.851 10.293 3.851 14.143 0l63.564-63.566c3.905-3.905 3.905-10.236 0-14.142l-63.565-63.567c-3.851-3.85-10.291-3.85-14.143 0l-63.564 63.566c-3.905 3.905-3.905 10.236 0 14.142zm7.071-120.062 49.424 49.425-49.423 49.424-49.424-49.425z" fill="#ffffff" data-original="#000000" style=""/><path d="m428.208 396.058c3.905-3.905 3.905-10.236 0-14.142l-27.896-27.897c-3.85-3.851-10.293-3.851-14.143 0l-27.896 27.896c-3.905 3.905-3.905 10.236 0 14.142l27.896 27.896c3.85 3.851 10.293 3.851 14.143 0zm-48.721-7.071 13.754-13.754 13.754 13.754-13.754 13.754z" fill="#ffffff" data-original="#000000" style=""/><path d="m128.739 214.539c-3.85-3.851-10.293-3.851-14.143 0l-49.454 49.456c-3.905 3.905-3.905 10.236 0 14.142l49.455 49.457c3.851 3.85 10.292 3.851 14.143 0l49.454-49.456c3.905-3.905 3.905-10.236 0-14.142zm-7.07 91.841-35.313-35.314 35.312-35.313 35.313 35.314z" fill="#ffffff" data-original="#000000" style=""/><path d="m268.35 438.99c-1.615-3.939-5.731-6.46-9.971-6.144-4.178.311-7.772 3.269-8.895 7.3-2.373 8.52 7.198 15.78 14.764 11.244 4.191-2.513 5.983-7.885 4.102-12.4z" fill="#ffffff" data-original="#000000" style=""/></g></g></g></svg>
